<svg width="89" height="337" viewBox="0 0 89 337" fill="none" xmlns="http://www.w3.org/2000/svg">
<path d="M59.2222 2H43.2222H28.2222C21.7222 6.5 23.416 17.5813 24.2222 20C24.7222 21.5 25.7222 23 25.7222 23C25.8889 47.3333 24.4222 99.7 17.2222 114.5C-0.277771 140.5 1.72222 149 1.72222 157.5C1.72222 166 1.22222 322 1.72222 326.5C2.22222 331 7.22222 333.5 8.72222 334.5C9.92222 335.3 32.5556 335.5 43.7222 335.5C54.7222 335.5 77.5222 335.1 80.7222 333.5C83.9222 331.9 87.2222 328.5 87.2222 326.5C87.0556 280.667 86.8222 179.1 87.2222 157.5C87.7222 130.5 76.8063 123.786 70.7222 114.5C61.2222 100 62.2222 50.5 61.2222 23C61.2222 23 62.3845 21.7925 63.2222 19C64.7222 14 62.2222 2 59.2222 2Z" stroke="#365888" stroke-width="3"/>
<path d="M11 182.988V291.97C9.31521 291.858 6.77854 291.583 4.57622 291.243C3.35251 291.055 2.24695 290.848 1.4536 290.643C1.05338 290.539 0.75499 290.441 0.565439 290.354C0.539973 290.342 0.518299 290.332 0.5 290.322V181.163C1.70395 181.487 3.54089 181.894 5.42162 182.242C7.43254 182.613 9.53895 182.925 11 182.988ZM0.416428 290.272C0.411952 290.268 0.412834 290.268 0.417064 290.272C0.416839 290.272 0.416627 290.272 0.416428 290.272Z" fill="#798DA9" stroke="#798DA9"/>
<path d="M78 182.981V291.473C79.7868 291.363 82.2274 291.087 84.2936 290.746C85.4329 290.559 86.4426 290.353 87.1604 290.15C87.523 290.047 87.7876 289.951 87.9526 289.868C87.9703 289.859 87.9861 289.85 88 289.843V181.154C86.7929 181.474 85.1075 181.884 83.3596 182.235C81.4975 182.608 79.5349 182.921 78 182.981Z" fill="#798DA9" stroke="#798DA9"/>
<path d="M12 292.059V183.069C36.0023 186.141 64.9005 184.384 77 183.059V291.564C69.7397 292.523 53.2783 293 44.0075 293C34.7179 293 19.2178 292.999 12 292.059Z" fill="#F7DB56" stroke="#F5DB53"/>
<path d="M5.54613 219.001L4 218.953V220.5V245V246.424L5.42252 246.498C15.1154 246.999 36.1746 247.5 43 247.5C49.824 247.5 72.5478 246.999 83.0714 246.498L84.5295 246.429L84.4997 244.969L83.9997 220.469L83.9688 218.957L82.4565 219.001C70.9765 219.333 51.9924 219.5 43 219.5C35.5073 219.5 16.3577 219.333 5.54613 219.001Z" fill="#2B235B" stroke="white" stroke-width="3"/>
<path d="M42.5 28.5C35.7 28.5 28.3333 27.8333 25.5 27.5L25 61C27.1667 61.1667 33.7 61.5 42.5 61.5C51.3 61.5 59.1667 60.1667 62 59.5L61.5 27.5C58 27.8333 49.3 28.5 42.5 28.5Z" fill="#F7DB56" stroke="#F7DB56" stroke-width="3"/>
<path d="M42.3108 31.1765C34.2243 31.1765 25.464 30.7255 22.0946 30.5L21.5 53.1618C24.0766 53.2745 31.8459 53.5 42.3108 53.5C52.7757 53.5 62.1306 52.598 65.5 52.1471L64.9054 30.5C60.7432 30.7255 50.3973 31.1765 42.3108 31.1765Z" fill="#2B235B" stroke="white" stroke-width="3"/>
</svg>
