<svg width="84" height="179" viewBox="0 0 84 179" fill="none" xmlns="http://www.w3.org/2000/svg">
<path d="M55.7945 2H40.9346H27.0034C20.9665 5.68852 22.5396 14.7716 23.2884 16.7541C23.7527 17.9836 24.6815 19.2131 24.6815 19.2131C24.8363 39.1585 23.4741 32.9016 16.7871 45.0328C0.534082 66.3443 2.39157 73.3115 2.39157 80.2787C2.39157 87.2459 1.9272 165.934 2.39157 169.623C2.85594 173.311 7.49967 175.361 8.89279 176.18C10.0073 176.836 31.0279 177 41.3989 177C51.6151 177 72.7906 176.672 75.7625 175.361C78.7345 174.049 81.7994 171.262 81.7994 169.623C81.6446 132.055 81.4279 97.9836 81.7994 80.2787C82.2638 58.1475 72.1256 52.6444 66.4751 45.0328C57.652 33.1475 58.5807 41.7541 57.652 19.2131C57.652 19.2131 58.7314 18.2234 59.5095 15.9344C60.9026 11.8361 58.5807 2 55.7945 2Z" stroke="#365888" stroke-width="3"/>
<path d="M73.4815 152V92.7407C73.4815 92.7407 52.6481 94.5926 42 94.5926C31.3518 94.5926 10.5185 92.7407 10.5185 92.7407V152C10.5185 152 31.3518 154.778 42 154.778C52.6481 154.778 73.4815 152 73.4815 152Z" fill="white" stroke="#365888" stroke-width="3"/>
</svg>

